<svg xmlns="http://www.w3.org/2000/svg" viewBox="0 0 63.07 128.24"><defs><style>.cls-1{fill:#1e191b;}</style></defs><title>Asset 1</title><g id="Layer_2" data-name="Layer 2"><g id="Layer_1-2" data-name="Layer 1"><polygon points="25.89 104.8 31.64 104.91 32.16 78.4 58.4 70.24 21.56 58.98 32.65 53.13 33.2 24.95 27.46 24.84 26.97 49.63 6.55 60.4 38.9 70.29 26.49 74.15 25.89 104.8"/><path d="M18.13,12.2A12.45,12.45,0,1,0,30.82,0,12.44,12.44,0,0,0,18.13,12.2Z"/><path class="cls-1" d="M0,112.71c-.16,8.23,13.83,15.17,31.24,15.51s31.67-6,31.83-14.28S49.24,98.76,31.83,98.42.16,104.48,0,112.71Z"/></g></g></svg>