<svg xmlns="http://www.w3.org/2000/svg" viewBox="0 0 136.81 331.96"><defs><style>.cls-1{fill:#043340;}.cls-2{fill:#a2bfdc;}.cls-3{fill:#4890c0;}</style></defs><title>Asset 3</title><g id="Layer_2" data-name="Layer 2"><g id="Layer_1-2" data-name="Layer 1"><path class="cls-1" d="M118.46,118.2c1.19,99.67-59.16,185.67-90.07,210A17.54,17.54,0,0,1,6.62,300.7c.61-.5,36.16-29.82,62.29-98.42a226.41,226.41,0,0,0,14.48-83.66,17.54,17.54,0,0,1,35.07-.42Z"/><path class="cls-2" d="M119.59,94S140,201.27,126.13,227.73s-72.9,7.21-74.56-7.61C50.21,207.94,89.16,88.44,89.16,88.44Z"/><path class="cls-3" d="M95.27,158.64l7.15-67.79-4.26-.77L82.45,239c1.41.32,2.82.6,4.25.84L94.81,163a62,62,0,0,0,33.55-2.17l.69-.25c-.14-1.5-.29-3-.45-4.51A58.19,58.19,0,0,1,95.27,158.64Z"/><path class="cls-1" d="M67.83,33.49c-3.49.41-5,4.74-2.7,7.42C68.61,45,73.8,51.79,76,57.93c3.51,9.68,6.85,31.14,17.21,36s22,7.41,31.85-.59,12.86-32.71,11.37-37c-3.08-8.73-9.84-8.82-12.2-9.92s8.6-33.1,8.57-37.51-6.45-6.26-8.06-2.81-11.14,34-13.67,34.92-1-32.3-.86-36.17-6.61-6.73-9.86-3.47.87,42.69-3.23,45.74-8,5.25-10.93.05C83.9,43.11,75.7,32.57,67.83,33.49Z"/></g></g></svg>