<svg xmlns="http://www.w3.org/2000/svg" viewBox="0 0 428.39 465.4"><defs><style>.cls-1{isolation:isolate;}.cls-2{fill:#a2bfdc;}.cls-3{fill:#032630;}.cls-4,.cls-6{fill:#a3b6bf;}.cls-5{fill:#4890c0;}.cls-6{opacity:0.46;mix-blend-mode:multiply;}.cls-7{fill:#043340;}.cls-8{fill:#5b8295;}</style></defs><title>Asset 4</title><g class="cls-1"><g id="Layer_2" data-name="Layer 2"><g id="Layer_1-2" data-name="Layer 1"><path class="cls-2" d="M140,248.15H285.6c25.8-27.34,55.66-61.6,60.38-95.89,2.33-17.64,4.38-41.89-1.57-56.57-12.11-29.84-52-47.18-67.41-49a682.47,682.47,0,0,0-121.71-3.51c-4.94.3-9.38,2.54-14,4.42C117.25,57.5,91.86,78,83.25,98.24c-6.67,15.68-1.9,41.85.41,59.33C88.37,191.87,114.22,220.81,140,248.15Z"/><ellipse class="cls-3" cx="214.69" cy="59.9" rx="52.06" ry="17.98"/><path class="cls-4" d="M214.69,41.92c-1.34,0-2.66,0-4,0,26.89.7,48.08,8.46,48.08,17.93S237.6,77.13,210.71,77.83c1.32,0,2.64,0,4,0,28.75,0,52.06-8,52.06-18S243.44,41.92,214.69,41.92Z"/><path class="cls-5" d="M242.21,248.15c6.38-67.82,17.73-138.81,61.42-192.17A116.73,116.73,0,0,0,292,50.78c-17.67,22.32-30.13,47.44-39.12,74-25.52-2.23-51-.12-76.41,2.35-7.56-28.13-18.36-55-36-79.24-3.72,1.57-7.47,3.39-11.19,5.42,42,55.44,44.84,128.52,57.19,194.8H199c-6.93-35.89-11.08-73.21-19.52-108.94,23.16-2.22,46.34-4,69.56-2.36-10.63,35.87-15.64,74-19.16,111.3Z"/><path class="cls-6" d="M344.41,95.69C337.62,79,322.1,66.15,307.06,57.81c6.59,15.4,4.17,40.72,2,57.48-6.63,48.17-55.49,95.9-119.14,95.9H108c9.51,12.83,20.76,25.05,32,37H285.6c25.8-27.34,55.66-61.6,60.38-95.89C348.31,134.62,350.36,110.37,344.41,95.69Z"/><path class="cls-7" d="M242.09,0c-1.22,59.36,2.86,64.76-4,76a136.89,136.89,0,0,1-23.35,1.91A136.84,136.84,0,0,1,191.34,76a27.17,27.17,0,0,1-4.05-14.32V0Z"/><path class="cls-8" d="M242.09,44.61v2.1c33.75,10.79,13,30-31.39,31.12,1.32,0,2.64,0,4,0C266.37,77.88,286.93,54.21,242.09,44.61Z"/><path class="cls-3" d="M338.76,91.44c-9.8-1.64-21.59,20-26.35,48.37s-.68,52.67,9.11,54.31,21.59-20,26.35-48.36S348.55,93.09,338.76,91.44Z"/><path class="cls-8" d="M347.87,145.76c-.22,1.32-.46,2.63-.71,3.92,3.76-26.64-.38-48.82-9.72-50.38s-20.5,18-25.64,44.44c.18-1.3.39-2.61.61-3.93,4.76-28.36,16.55-50,26.35-48.37S352.63,117.4,347.87,145.76Z"/><path class="cls-3" d="M90.94,96.7c9.79-1.64,21.59,20,26.35,48.37s.68,52.67-9.12,54.31-21.59-20-26.35-48.36S81.15,98.35,90.94,96.7Z"/><path class="cls-8" d="M81.82,151c.23,1.32.46,2.63.71,3.92-3.75-26.64.39-48.82,9.73-50.38s20.49,18,25.64,44.44c-.19-1.3-.39-2.61-.61-3.93-4.76-28.36-16.56-50-26.35-48.37S77.07,122.67,81.82,151Z"/><path class="cls-7" d="M24.23,341.83C9.1,248.1,53.87,158.6,79.58,131.33A16.7,16.7,0,0,1,104,154.18c-.5.55-29.88,33.17-44.85,101.47a215.58,215.58,0,0,0-1.89,80.86,16.7,16.7,0,1,1-33,5.32Z"/><path class="cls-2" d="M26.56,364.8S-7.72,266.58,1.61,239.72s67.67-17,71.31-3.31C75.92,247.69,56,365.75,56,365.75Z"/><path class="cls-5" d="M40.39,300.47l2.79,64.87,4.12.13L41.18,223c-1.37-.1-2.75-.17-4.12-.19l3.15,73.58a59.05,59.05,0,0,0-31.29,6.75l-.63.33c.35,1.4.7,2.8,1.06,4.19A55.48,55.48,0,0,1,40.39,300.47Z"/><path class="cls-7" d="M21.28,367.72s7.41-15.1,27.94-10.47,14.28,25.2,20.16,34.52,12.13,22.32,7.94,25-19.74-11.65-23-16.78-13,22.23-14.82,30.21S51.12,462,46,465.18,19.46,435,16.66,430.59,19.57,375.32,21.28,367.72Z"/><path class="cls-7" d="M404.17,341.83c15.12-93.73-29.65-183.23-55.36-210.5a16.7,16.7,0,0,0-24.37,22.85c.5.55,29.88,33.17,44.86,101.47a215.79,215.79,0,0,1,1.89,80.86,16.7,16.7,0,0,0,33,5.32Z"/><path class="cls-2" d="M401.84,364.8s34.28-98.22,24.94-125.08-67.66-17-71.31-3.31c-3,11.28,16.91,129.34,16.91,129.34Z"/><path class="cls-5" d="M388,300.47l-2.78,64.87-4.12.13L387.22,223c1.36-.1,2.74-.17,4.12-.19l-3.16,73.58a59.09,59.09,0,0,1,31.3,6.75l.62.33c-.35,1.4-.7,2.8-1.06,4.19A55.46,55.46,0,0,0,388,300.47Z"/><path class="cls-7" d="M407.11,367.72s-7.41-15.1-27.93-10.47S364.9,382.45,359,391.77s-12.14,22.32-7.94,25,19.73-11.65,23-16.78,13,22.23,14.81,30.21-11.59,31.78-6.46,35,26.54-30.16,29.33-34.59S408.83,375.32,407.11,367.72Z"/></g></g></g></svg>