<svg xmlns="http://www.w3.org/2000/svg" viewBox="0 0 261.43 173.83"><defs><style>.cls-1{fill:#043340;}.cls-2{fill:#a2bfdc;}.cls-3{fill:#4890c0;}</style></defs><title>Asset 4</title><g id="Layer_2" data-name="Layer 2"><g id="Layer_1-2" data-name="Layer 1"><path class="cls-1" d="M75.67,145.19c-24.43-15.7-38.8-31.3-40.18-44.14-4.8-44.72,35.58-67,37.47-68A17.54,17.54,0,0,0,56.7,2C54.42,3.17,7.37,28.3.77,80.92a103.07,103.07,0,0,0-.15,23.87q2.2,20.59,20.05,40.4Z"/><path class="cls-2" d="M160.41,167.14s-108.7,10.45-133.77-5.77-.49-73.25,14.42-73.54c12.25-.24,127.67,49.51,127.67,49.51Z"/><path class="cls-3" d="M98.27,137l66.84,13.34,1.16-4.16L19.41,116.84c-.44,1.37-.85,2.76-1.22,4.16L94,136.13a62,62,0,0,0-.92,33.6l.18.72,4.53,0A58.34,58.34,0,0,1,98.27,137Z"/><path class="cls-1" d="M165.94,173.83s-17.09-4.44-16.64-26.53,22.92-20,31.26-28,20.4-17.17,24-13.42-7.83,22.76-12.42,27.16,25.59,8.71,34.18,8.89,30.25-18.61,34.66-14-25.45,33.64-29.41,37.44S174.12,174,165.94,173.83Z"/></g></g></svg>