<svg xmlns="http://www.w3.org/2000/svg" viewBox="0 0 571.27 465.28"><defs><style>.cls-1{isolation:isolate;}.cls-2{fill:#043340;}.cls-3{fill:#a2bfdc;}.cls-4{fill:#a3b6bf;opacity:0.46;mix-blend-mode:multiply;}.cls-5{fill:#2fc670;}.cls-6{fill:#1e191b;}</style></defs><title>Asset 5</title><g class="cls-1"><g id="Layer_2" data-name="Layer 2"><g id="Layer_1-2" data-name="Layer 1"><ellipse class="cls-2" cx="285.64" cy="282.64" rx="285.64" ry="128.28"/><path class="cls-3" d="M33.34,342.84a172.73,172.73,0,0,0,16.73,12.37C35.28,312.65,28.87,265.39,30.42,225a118.35,118.35,0,0,0-12.5,12.84A386,386,0,0,0,33.34,342.84Z"/><path class="cls-3" d="M553.27,237.73a120.27,120.27,0,0,0-12.56-12.88c2.4,40.8-5.77,88.87-22.08,132a176.73,176.73,0,0,0,17.44-12.48C547.49,308.8,553.45,271.38,553.27,237.73Z"/><path class="cls-3" d="M363.27,464.35a682.65,682.65,0,0,0-159.92-3.29C80.67,473,37,289.23,54.51,196.75,63.43,149.6,116,115.8,160.36,105.31a572.8,572.8,0,0,1,247.17-3.26c43.38,9.24,86.28,38.67,103.17,81C546,271.36,483.1,481,363.27,464.35Z"/><path class="cls-4" d="M510.7,183c-8.35-20.91-23.05-38.67-41-52.4A114.47,114.47,0,0,1,484.5,156.8c35.27,88.35-27.6,298-147.44,281.34a683.18,683.18,0,0,0-159.92-3.29c-29.1,2.83-53.76-5.35-74.21-20.72,24.34,31.37,57.55,51.1,100.42,46.93a682.65,682.65,0,0,1,159.92,3.29C483.1,481,546,271.36,510.7,183Z"/><path class="cls-2" d="M402.84,378.16c-20.44,7.94-42.33,12.81-62.48,15.57-64.18,8.79-141.24,4.19-197.48-30.66-25.26-15.64-44.87-39-49.62-69-.39-2.41-.77-4.83-1.15-7.24C83,229.54,124.9,177,182.73,172.46a1352.57,1352.57,0,0,1,209.57,0c57.84,4.49,99.7,57.08,90.62,114.37l-1.08,6.82C475,337.15,441.48,363.14,402.84,378.16Z"/><path class="cls-5" d="M341.63,336.42c0,11.06-23,30.32-51.37,30.32s-51.38-19.26-51.38-30.32,23-9.75,51.38-9.75S341.63,325.36,341.63,336.42Z"/><path class="cls-5" d="M216.28,266.47A16.52,16.52,0,1,1,199.76,250,16.52,16.52,0,0,1,216.28,266.47Z"/><path class="cls-5" d="M387.87,261.19a16.53,16.53,0,1,1-16.53-16.53A16.53,16.53,0,0,1,387.87,261.19Z"/><polygon points="279.99 104.8 285.74 104.91 286.26 78.4 312.5 70.24 275.66 58.98 286.75 53.13 287.3 24.95 281.56 24.84 281.07 49.63 260.65 60.4 292.99 70.29 280.59 74.15 279.99 104.8"/><path d="M272.23,12.2A12.45,12.45,0,1,0,284.92,0,12.43,12.43,0,0,0,272.23,12.2Z"/><path class="cls-6" d="M254.1,112.71c-.16,8.23,13.83,15.17,31.24,15.51s31.67-6,31.83-14.28-13.83-15.18-31.24-15.52S254.26,104.48,254.1,112.71Z"/></g></g></g></svg>