<svg xmlns="http://www.w3.org/2000/svg" viewBox="0 0 253.85 196.04"><defs><style>.cls-1{fill:#043340;}.cls-2{fill:#a2bfdc;}.cls-3{fill:#4890c0;}</style></defs><title>Asset 6</title><g id="Layer_2" data-name="Layer 2"><g id="Layer_1-2" data-name="Layer 1"><path class="cls-1" d="M75.67,145.19c-24.43-15.7-38.8-31.3-40.18-44.14-4.8-44.72,35.58-67,37.47-68A17.54,17.54,0,0,0,56.7,2C54.43,3.17,7.37,28.3.77,80.92a103.07,103.07,0,0,0-.15,23.87q2.2,20.59,20.05,40.4Z"/><path class="cls-2" d="M160.41,167.14s-108.7,10.45-133.77-5.77-.49-73.25,14.42-73.54c12.25-.24,127.67,49.51,127.67,49.51Z"/><path class="cls-3" d="M98.27,137l66.84,13.34,1.16-4.16L19.41,116.84c-.44,1.37-.85,2.76-1.22,4.16L94,136.13a62,62,0,0,0-.92,33.6l.18.72,4.53,0A58.34,58.34,0,0,1,98.27,137Z"/><path class="cls-1" d="M210.92,102.07c-1.24-3.29-5.81-3.68-7.86-.83-3.15,4.38-8.45,11-13.88,14.69-8.54,5.74-28.56,14.17-30.76,25.39s-1.89,23.11,8.27,30.76,28.77,7.23,31.78,11.71,27.35,16.31,30.89,10.83c2.45-3.78-24.93-16-24.06-20.44s33.33,7.42,37.8,4.42,4-7.87-2.27-9.1-29.36-7-28.86-9.55,34.2.35,38.47-.75,4.52-7.76.78-8.5-35.69-2.59-37.19-4.83,31.1-8.79,34.9-9.57,4.93-8,1-10.4-41.21,11.16-45.17,7.91-7-6.5-2.69-10.59C205.47,120,213.72,109.48,210.92,102.07Z"/></g></g></svg>