<svg xmlns="http://www.w3.org/2000/svg" viewBox="0 0 233.85 233.06"><defs><style>.cls-1{fill:#043340;}.cls-2{fill:#a2bfdc;}.cls-3{fill:#4890c0;}</style></defs><title>Asset 8</title><g id="Layer_2" data-name="Layer 2"><g id="Layer_1-2" data-name="Layer 1"><path class="cls-1" d="M84.2,233.06c-50.51,0-79.85-41.49-81.24-43.5A16.7,16.7,0,0,1,30.4,170.51c1.18,1.67,27,37.19,68.71,27.35,15-3.54,31.65-26.8,45.74-63.82a16.7,16.7,0,0,1,31.22,11.88c-18.89,49.65-42.2,78.06-69.29,84.45A98.09,98.09,0,0,1,84.2,233.06Z"/><path class="cls-2" d="M191.89,93.56s-15.36,102.88-36.12,122.33S88,199.48,91.11,185.63C93.71,174.25,166.26,79,166.26,79Z"/><path class="cls-3" d="M149.71,144.06l27.72-58.71-3.59-2L113,212.32c1.16.72,2.35,1.42,3.56,2.09l31.43-66.61a59.05,59.05,0,0,0,30.85,8.59h.71c.34-1.4.68-2.81,1-4.2A55.54,55.54,0,0,1,149.71,144.06Z"/><path class="cls-1" d="M143.37,31.9A4.31,4.31,0,0,0,140.79,39c3.32,3.92,8.26,10.36,10.38,16.21,3.34,9.22,6.53,29.66,16.39,34.28s20.93,7.07,30.34-.56S211.21,64,216,62.22s21.38-21.53,17.12-26.07c-2.93-3.13-20.54,19.36-24.42,17.54s14.53-29.1,12.78-33.93-6.35-5.52-8.94,0S199.35,45.3,197.11,44.25s8.19-31.53,8.16-35.73-6.14-6-7.68-2.68-10.6,32.39-13,33.27-1-30.78-.82-34.47-6.29-6.4-9.38-3.3.83,40.67-3.09,43.57-7.62,5-10.41.05C158.68,41.06,150.86,31,143.37,31.9Z"/></g></g></svg>