<svg xmlns="http://www.w3.org/2000/svg" viewBox="0 0 209.97 359.01"><defs><style>.cls-1{fill:#043340;}.cls-2{fill:#a2bfdc;}.cls-3{fill:#4890c0;}</style></defs><title>Asset 7</title><g id="Layer_2" data-name="Layer 2"><g id="Layer_1-2" data-name="Layer 1"><path class="cls-1" d="M15.1,359A15.1,15.1,0,0,1,4.42,333.23C55.21,282.44,128,105.16,128.76,103.37a15.1,15.1,0,0,1,28,11.43c-3.07,7.52-75.86,184.72-130.93,239.79A15.06,15.06,0,0,1,15.1,359Z"/><path class="cls-2" d="M165.92,98.22S149.8,206.23,128,226.64s-71.2-17.22-67.88-31.76C62.84,182.93,139,83,139,83Z"/><path class="cls-3" d="M121.64,151.24l29.1-61.64L147,87.47,83,222.89c1.23.76,2.47,1.5,3.74,2.19l33-69.92a62,62,0,0,0,32.38,9h.74c.36-1.47.71-2.94,1.06-4.4A58.31,58.31,0,0,1,121.64,151.24Z"/><path class="cls-1" d="M115,33.49c-3.49.41-5,4.74-2.7,7.43,3.48,4.11,8.66,10.86,10.89,17,3.51,9.68,6.85,31.14,17.21,36s22,7.41,31.84-.59,14-26.18,19.05-28,22.44-22.59,18-27.36c-3.08-3.29-21.57,20.33-25.65,18.42S198.85,25.82,197,20.75s-6.66-5.8-9.38,0S173.75,47.55,171.4,46.45,180,13.35,180,8.94s-6.44-6.27-8.05-2.81-11.14,34-13.67,34.92-1-32.3-.86-36.17-6.61-6.73-9.86-3.47.87,42.69-3.23,45.74-8,5.25-10.93.05C131.05,43.11,122.85,32.57,115,33.49Z"/></g></g></svg>